<svg xmlns="http://www.w3.org/2000/svg" xmlns:xlink="http://www.w3.org/1999/xlink" width="1540" height="841.56"><rect width="1540" height="841.56" rx="5" ry="5" class="a"/><svg y="0%" x="0%"><circle cx="20" cy="20" r="6" fill="#ff5f58"/><circle cx="40" cy="20" r="6" fill="#ffbd2e"/><circle cx="60" cy="20" r="6" fill="#18c132"/></svg><svg height="781.56" viewBox="0 0 150 78.156" width="1500" x="15" xmlns="http://www.w3.org/2000/svg" xmlns:xlink="http://www.w3.org/1999/xlink" y="50"><style>@keyframes m{0%{transform:translateX(0)}1.88%{transform:translateX(-150px)}8.78%{transform:translateX(-300px)}11.67%{transform:translateX(-450px)}12.58%{transform:translateX(-600px)}15.95%{transform:translateX(-750px)}33.08%{transform:translateX(-900px)}33.73%{transform:translateX(-1200px)}33.74%{transform:translateX(-1350px)}41.7%{transform:translateX(-1500px)}41.71%{transform:translateX(-1800px)}41.82%{transform:translateX(-1950px)}41.83%{transform:translateX(-2100px)}49.33%{transform:translateX(-2400px)}49.35%{transform:translateX(-2550px)}49.48%{transform:translateX(-2850px)}49.49%{transform:translateX(-3000px)}49.51%{transform:translateX(-3150px)}55.11%{transform:translateX(-3450px)}55.12%{transform:translateX(-3600px)}56.12%{transform:translateX(-4050px)}56.14%{transform:translateX(-4350px)}58.68%{transform:translateX(-4650px)}58.7%{transform:translateX(-4800px)}60.82%{transform:translateX(-5100px)}60.93%{transform:translateX(-5400px)}60.95%{transform:translateX(-5550px)}66.79%{transform:translateX(-5850px)}66.81%{transform:translateX(-6000px)}66.94%{transform:translateX(-6150px)}66.95%{transform:translateX(-6450px)}66.97%{transform:translateX(-6600px)}69.8%{transform:translateX(-7050px)}69.82%{transform:translateX(-7200px)}70.97%{transform:translateX(-7500px)}70.98%{transform:translateX(-7650px)}71.9%{transform:translateX(-8100px)}71.92%{transform:translateX(-8400px)}72.93%{transform:translateX(-8850px)}72.94%{transform:translateX(-9150px)}74.14%{transform:translateX(-9450px)}74.15%{transform:translateX(-9600px)}76.18%{transform:translateX(-9750px)}76.19%{transform:translateX(-10350px)}76.29%{transform:translateX(-10650px)}76.31%{transform:translateX(-10800px)}82.29%{transform:translateX(-11100px)}82.31%{transform:translateX(-11400px)}85.49%{transform:translateX(-11550px)}85.5%{transform:translateX(-11700px)}85.52%{transform:translateX(-11850px)}85.72%{transform:translateX(-12000px)}95.86%{transform:translateX(-12150px)}96.64%{transform:translateX(-12300px)}97.72%{transform:translateX(-12450px)}98.72%{transform:translateX(-12600px)}to{transform:translateX(-12900px)}}.a{fill:#282d35}.f{fill:#71bef2}.f,.g{white-space:pre}.g,.h{fill:#b9c0cb}.i,.j{fill:#282d35;white-space:pre}.j{fill:#e88388;font-weight:700}</style><g font-family="Monaco,Consolas,Menlo,'Bitstream Vera Sans Mono','Powerline Symbols',monospace" font-size="1.67"><defs><symbol id="24"><text x="2.004" y="1.67" class="g">Midterms</text><text x="11.022" y="1.67" class="g">Grades</text></symbol><symbol id="1"><text x="1.002" y="1.67" class="f">~/GUC-Grades</text><text x="14.028" y="1.67" class="f">$</text><text x="16.032" y="1.67" class="f">&gt;&gt;</text></symbol><symbol id="3"><text x="1.002" y="1.67" class="f">~/GUC-Grades</text><text x="14.028" y="1.67" class="f">$</text><text x="16.032" y="1.67" class="f">&gt;&gt;</text><text x="19.038" y="1.67" class="g">python3</text><text x="27.054" y="1.67" class="g">GUC-Grades.py</text></symbol><symbol id="4"><path class="h" d="M2.004 0h15v2.171h-15z"/><text x="2.004" y="1.67" class="i">Midterms Grades</text></symbol><symbol id="5"><text x="2.004" y="1.67" class="g">General</text><text x="10.02" y="1.67" class="g">-</text><text x="12.024" y="1.67" class="g">SM101</text><text x="18.036" y="1.67" class="g">Scientific</text><text x="29.058" y="1.67" class="g">Methods</text><text x="37.074" y="1.67" class="g">(A1)</text></symbol><symbol id="6"><text x="2.004" y="1.67" class="g">IET</text><text x="6.012" y="1.67" class="g">&amp;</text><text x="8.016" y="1.67" class="g">MET</text><text x="12.024" y="1.67" class="g">3rd</text><text x="16.032" y="1.67" class="g">Semester</text><text x="25.05" y="1.67" class="g">-</text><text x="27.054" y="1.67" class="g">MATH301</text><text x="35.07" y="1.67" class="g">Mathematics</text><text x="47.094" y="1.67" class="g">III</text></symbol><symbol id="7"><text x="2.004" y="1.67" class="g">General</text><text x="10.02" y="1.67" class="g">-</text><text x="12.024" y="1.67" class="g">DE303</text><text x="18.036" y="1.67" class="g">Basic</text><text x="24.048" y="1.67" class="g">German</text><text x="31.062" y="1.67" class="g">3</text></symbol><symbol id="8"><text x="2.004" y="1.67" class="g">IET</text><text x="6.012" y="1.67" class="g">&amp;</text><text x="8.016" y="1.67" class="g">MET</text><text x="12.024" y="1.67" class="g">3rd</text><text x="16.032" y="1.67" class="g">Semester</text><text x="25.05" y="1.67" class="g">-</text><text x="27.054" y="1.67" class="g">ELCT301</text><text x="35.07" y="1.67" class="g">Electrical</text><text x="46.092" y="1.67" class="g">Circuits</text><text x="55.11" y="1.67" class="g">I</text></symbol><symbol id="9"><text x="2.004" y="1.67" class="g">IET</text><text x="6.012" y="1.67" class="g">&amp;</text><text x="8.016" y="1.67" class="g">MET</text><text x="12.024" y="1.67" class="g">3rd</text><text x="16.032" y="1.67" class="g">Semester</text><text x="25.05" y="1.67" class="g">-</text><text x="27.054" y="1.67" class="g">CSEN301</text><text x="35.07" y="1.67" class="g">Data</text><text x="40.08" y="1.67" class="g">structures</text><text x="51.102" y="1.67" class="g">and</text><text x="55.11" y="1.67" class="g">Algorithms</text></symbol><symbol id="10"><text x="2.004" y="1.67" class="g">IET</text><text x="6.012" y="1.67" class="g">&amp;</text><text x="8.016" y="1.67" class="g">MET</text><text x="12.024" y="1.67" class="g">3rd</text><text x="16.032" y="1.67" class="g">Semester</text><text x="25.05" y="1.67" class="g">-</text><text x="27.054" y="1.67" class="g">PHYSp301</text><text x="36.072" y="1.67" class="g">Physics</text><text x="44.088" y="1.67" class="g">III</text><text x="48.096" y="1.67" class="g">(P)</text></symbol><symbol id="11"><text x="2.004" y="1.67" class="g">IET</text><text x="6.012" y="1.67" class="g">&amp;</text><text x="8.016" y="1.67" class="g">MET</text><text x="12.024" y="1.67" class="g">3rd</text><text x="16.032" y="1.67" class="g">Semester</text><text x="25.05" y="1.67" class="g">-</text><text x="27.054" y="1.67" class="g">PHYSt301</text><text x="36.072" y="1.67" class="g">Physics</text><text x="44.088" y="1.67" class="g">III</text><text x="48.096" y="1.67" class="g">(t)</text></symbol><symbol id="12"><text y="1.67" class="j">&gt;</text><path class="h" d="M2.004 0h15v2.171h-15z"/><text x="2.004" y="1.67" class="i">Midterms Grades</text></symbol><symbol id="13"><text y="1.67" class="g">---------------</text></symbol><symbol id="14"><text y="1.67" class="g">Midterms</text><text x="9.018" y="1.67" class="g">Grades</text></symbol><symbol id="15"><text y="1.67" class="g">General</text><text x="8.016" y="1.67" class="g">-</text><text x="10.02" y="1.67" class="g">Scientific</text><text x="21.042" y="1.67" class="g">Methods</text><text x="29.058" y="1.67" class="g">(A1)</text><text x="34.068" y="1.67" class="g">SM101</text><text x="71.142" y="1.67" class="g">100</text></symbol><symbol id="16"><text y="1.67" class="g">IET</text><text x="4.008" y="1.67" class="g">&amp;</text><text x="6.012" y="1.67" class="g">MET</text><text x="10.02" y="1.67" class="g">3rd</text><text x="14.028" y="1.67" class="g">Semester</text><text x="23.046" y="1.67" class="g">-</text><text x="25.05" y="1.67" class="g">Physics</text><text x="33.066" y="1.67" class="g">III</text><text x="37.074" y="1.67" class="g">(t)</text><text x="41.082" y="1.67" class="g">PHYSt301</text><text x="71.142" y="1.67" class="g">100</text></symbol><symbol id="17"><text y="1.67" class="g">IET</text><text x="4.008" y="1.67" class="g">&amp;</text><text x="6.012" y="1.67" class="g">MET</text><text x="10.02" y="1.67" class="g">3rd</text><text x="14.028" y="1.67" class="g">Semester</text><text x="23.046" y="1.67" class="g">-</text><text x="25.05" y="1.67" class="g">Mathematics</text><text x="37.074" y="1.67" class="g">III</text><text x="41.082" y="1.67" class="g">MATH301</text><text x="71.142" y="1.67" class="g">100</text></symbol><symbol id="18"><text y="1.67" class="g">IET</text><text x="4.008" y="1.67" class="g">&amp;</text><text x="6.012" y="1.67" class="g">MET</text><text x="10.02" y="1.67" class="g">3rd</text><text x="14.028" y="1.67" class="g">Semester</text><text x="23.046" y="1.67" class="g">-</text><text x="25.05" y="1.67" class="g">Electrical</text><text x="36.072" y="1.67" class="g">Circuits</text><text x="45.09" y="1.67" class="g">I</text><text x="47.094" y="1.67" class="g">ELCT301</text><text x="71.142" y="1.67" class="g">100</text></symbol><symbol id="19"><text y="1.67" class="g">IET</text><text x="4.008" y="1.67" class="g">&amp;</text><text x="6.012" y="1.67" class="g">MET</text><text x="10.02" y="1.67" class="g">3rd</text><text x="14.028" y="1.67" class="g">Semester</text><text x="23.046" y="1.67" class="g">-</text><text x="25.05" y="1.67" class="g">Data</text><text x="30.06" y="1.67" class="g">structures</text><text x="41.082" y="1.67" class="g">and</text><text x="45.09" y="1.67" class="g">Algorithms</text><text x="56.112" y="1.67" class="g">CSEN301</text><text x="71.142" y="1.67" class="g">100</text></symbol><symbol id="20"><path class="h" d="M2.004 0h14v2.171h-14z"/><text x="2.004" y="1.67" class="i">Choose another</text></symbol><symbol id="21"><text x="2.004" y="1.67" class="g">Exit</text></symbol><symbol id="22"><text x="2.004" y="1.67" class="g">Log</text><text x="6.012" y="1.67" class="g">out</text></symbol><symbol id="23"><text y="1.67" class="j">&gt;</text><path class="h" d="M2.004 0h14v2.171h-14z"/><text x="2.004" y="1.67" class="i">Choose another</text></symbol><symbol id="2"><text x="1.002" y="1.67" class="f">~/GUC-Grades</text><text x="14.028" y="1.67" class="f">$</text><text x="16.032" y="1.67" class="f">&gt;&gt;</text><text x="19.038" y="1.67" class="g">exit</text></symbol><symbol id="25"><path class="h" d="M2.004 0h39v2.171h-39z"/><text x="2.004" y="1.67" class="i">General - SM101 Scientific Methods (A1)</text></symbol><symbol id="26"><text y="1.67" class="j">&gt;</text><path class="h" d="M2.004 0h39v2.171h-39z"/><text x="2.004" y="1.67" class="i">General - SM101 Scientific Methods (A1)</text></symbol><symbol id="27"><path class="h" d="M2.004 0h48v2.171h-48z"/><text x="2.004" y="1.67" class="i">IET &amp; MET 3rd Semester - MATH301 Mathematics III</text></symbol><symbol id="28"><text y="1.67" class="j">&gt;</text><path class="h" d="M2.004 0h48v2.171h-48z"/><text x="2.004" y="1.67" class="i">IET &amp; MET 3rd Semester - MATH301 Mathematics III</text></symbol><symbol id="29"><path class="h" d="M2.004 0h30v2.171h-30z"/><text x="2.004" y="1.67" class="i">General - DE303 Basic German 3</text></symbol><symbol id="30"><text y="1.67" class="j">&gt;</text><path class="h" d="M2.004 0h30v2.171h-30z"/><text x="2.004" y="1.67" class="i">General - DE303 Basic German 3</text></symbol><symbol id="31"><text y="1.67" class="g">------------------------------</text></symbol><symbol id="32"><text y="1.67" class="g">General</text><text x="8.016" y="1.67" class="g">-</text><text x="10.02" y="1.67" class="g">DE303</text><text x="16.032" y="1.67" class="g">Basic</text><text x="22.044" y="1.67" class="g">German</text><text x="29.058" y="1.67" class="g">3</text></symbol><symbol id="33"><text y="1.67" class="g">##</text><text x="3.006" y="1.67" class="g">No</text><text x="6.012" y="1.67" class="g">Grades</text><text x="13.026" y="1.67" class="g">Appeared</text><text x="22.044" y="1.67" class="g">till</text><text x="27.054" y="1.67" class="g">now</text><text x="31.062" y="1.67" class="g">##</text></symbol><symbol id="34"><path class="h" d="M2.004 0h54v2.171h-54z"/><text x="2.004" y="1.67" class="i">IET &amp; MET 3rd Semester - ELCT301 Electrical Circuits I</text></symbol><symbol id="35"><text y="1.67" class="j">&gt;</text><path class="h" d="M2.004 0h54v2.171h-54z"/><text x="2.004" y="1.67" class="i">IET &amp; MET 3rd Semester - ELCT301 Electrical Circuits I</text></symbol><symbol id="36"><text y="1.67" class="g">---------------------------------------------------------------</text></symbol><symbol id="37"><text y="1.67" class="g">IET</text><text x="4.008" y="1.67" class="g">&amp;</text><text x="6.012" y="1.67" class="g">MET</text><text x="10.02" y="1.67" class="g">3rd</text><text x="14.028" y="1.67" class="g">Semester</text><text x="23.046" y="1.67" class="g">-</text><text x="25.05" y="1.67" class="g">CSEN301</text><text x="33.066" y="1.67" class="g">Data</text><text x="38.076" y="1.67" class="g">structures</text><text x="49.098" y="1.67" class="g">and</text><text x="53.106" y="1.67" class="g">Algorithms</text></symbol><symbol id="38"><text y="1.67" class="g">Lab</text><text x="4.008" y="1.67" class="g">Assignment</text><text x="15.03" y="1.67" class="g">1</text><text x="41.082" y="1.67" class="g">10/10</text><text x="57.114" y="1.67" class="g">TA</text><text x="60.12" y="1.67" class="g">Name</text></symbol><symbol id="39"><text y="1.67" class="g">Quiz</text><text x="5.01" y="1.67" class="g">1</text><text x="41.082" y="1.67" class="g">15/15</text><text x="57.114" y="1.67" class="g">TA</text><text x="60.12" y="1.67" class="g">Name</text></symbol><symbol id="40"><text y="1.67" class="g">Lab</text><text x="4.008" y="1.67" class="g">Assignment</text><text x="15.03" y="1.67" class="g">2</text><text x="41.082" y="1.67" class="g">10/10</text><text x="57.114" y="1.67" class="g">TA</text><text x="60.12" y="1.67" class="g">Name</text></symbol><symbol id="41"><text y="1.67" class="g">Lab</text><text x="4.008" y="1.67" class="g">Assignment</text><text x="15.03" y="1.67" class="g">3</text><text x="41.082" y="1.67" class="g">10/10</text><text x="57.114" y="1.67" class="g">TA</text><text x="60.12" y="1.67" class="g">Name</text></symbol><symbol id="42"><text y="1.67" class="g">Quiz</text><text x="5.01" y="1.67" class="g">2</text><text x="41.082" y="1.67" class="g">20/20</text><text x="57.114" y="1.67" class="g">TA</text><text x="60.12" y="1.67" class="g">Name</text></symbol><symbol id="43"><text x="2.004" y="1.67" class="g">Choose</text><text x="9.018" y="1.67" class="g">another</text></symbol><symbol id="44"><path class="h" d="M2.004 0h4v2.171h-4z"/><text x="2.004" y="1.67" class="i">Exit</text></symbol><symbol id="45"><text y="1.67" class="j">&gt;</text><path class="h" d="M2.004 0h4v2.171h-4z"/><text x="2.004" y="1.67" class="i">Exit</text></symbol><symbol id="a"><path fill="transparent" d="M0 0h150v36H0z"/></symbol><symbol id="b"><path fill="#6f7683" d="M0 0h1.102v2.171H0z"/></symbol></defs><path class="a" d="M0 0h150v78.156H0z"/><g style="animation-duration:17.166878s;animation-iteration-count:infinite;animation-name:m;animation-timing-function:steps(1,end)"><svg width="13050"><svg><use xlink:href="#a"/><use xlink:href="#b" x="-.004"/></svg><svg x="150"><use xlink:href="#a"/><use xlink:href="#b" x="18.996"/><use xlink:href="#1"/></svg><svg x="300"><use xlink:href="#a"/><use xlink:href="#b" x="18.996"/><use xlink:href="#1"/></svg><svg x="450"><use xlink:href="#a"/><use xlink:href="#b" x="22.996"/><use xlink:href="#2"/></svg><svg x="600"><use xlink:href="#a"/><use xlink:href="#b" x="39.996"/><use xlink:href="#3"/></svg><svg x="750"><use xlink:href="#a"/><use xlink:href="#b" x="-.004" y="2.146"/><use xlink:href="#3"/></svg><svg x="900"><use xlink:href="#a"/><use xlink:href="#b" x="-.004"/></svg><svg x="1050"><use xlink:href="#a"/><use xlink:href="#4"/><use xlink:href="#5" y="2.171"/></svg><svg x="1200"><use xlink:href="#a"/><use xlink:href="#4"/><use xlink:href="#5" y="2.171"/><use xlink:href="#6" y="4.342"/><use xlink:href="#7" y="6.513"/><use xlink:href="#8" y="8.684"/><use xlink:href="#9" y="10.855"/><use xlink:href="#10" y="13.026"/><use xlink:href="#11" y="15.197"/></svg><svg x="1350"><use xlink:href="#a"/><use xlink:href="#12"/><use xlink:href="#5" y="2.171"/><use xlink:href="#6" y="4.342"/><use xlink:href="#7" y="6.513"/><use xlink:href="#8" y="8.684"/><use xlink:href="#9" y="10.855"/><use xlink:href="#10" y="13.026"/><use xlink:href="#11" y="15.197"/></svg><svg x="1500"><use xlink:href="#a"/></svg><svg x="1650"><use xlink:href="#a"/><use xlink:href="#b" x="-.004" y="8.659"/><use xlink:href="#13"/><use xlink:href="#14" y="2.171"/><use xlink:href="#13" y="4.342"/></svg><svg x="1800"><use xlink:href="#a"/><use xlink:href="#b" x="-.004" y="26.027"/><use xlink:href="#13"/><use xlink:href="#14" y="2.171"/><use xlink:href="#13" y="4.342"/><use xlink:href="#15" y="10.855"/><use xlink:href="#16" y="13.026"/><use xlink:href="#17" y="15.197"/><use xlink:href="#18" y="17.368"/><use xlink:href="#19" y="19.539"/></svg><svg x="1950"><use xlink:href="#a"/><use xlink:href="#13"/><use xlink:href="#14" y="2.171"/><use xlink:href="#13" y="4.342"/><use xlink:href="#15" y="10.855"/><use xlink:href="#16" y="13.026"/><use xlink:href="#17" y="15.197"/><use xlink:href="#18" y="17.368"/><use xlink:href="#19" y="19.539"/><use xlink:href="#20" y="26.052"/><use xlink:href="#21" y="28.223"/><use xlink:href="#22" y="30.394"/></svg><svg x="2100"><use xlink:href="#a"/><use xlink:href="#13"/><use xlink:href="#14" y="2.171"/><use xlink:href="#13" y="4.342"/><use xlink:href="#15" y="10.855"/><use xlink:href="#16" y="13.026"/><use xlink:href="#17" y="15.197"/><use xlink:href="#18" y="17.368"/><use xlink:href="#19" y="19.539"/><use xlink:href="#23" y="26.052"/><use xlink:href="#21" y="28.223"/><use xlink:href="#22" y="30.394"/></svg><svg x="2250"><use xlink:href="#a"/><use xlink:href="#13"/><use xlink:href="#14" y="2.171"/><use xlink:href="#13" y="4.342"/><use xlink:href="#15" y="10.855"/><use xlink:href="#16" y="13.026"/><use xlink:href="#17" y="15.197"/><use xlink:href="#18" y="17.368"/><use xlink:href="#19" y="19.539"/></svg><svg x="2400"><use xlink:href="#a"/><use xlink:href="#b" x="-.004" y="26.027"/><use xlink:href="#13"/><use xlink:href="#14" y="2.171"/><use xlink:href="#13" y="4.342"/><use xlink:href="#15" y="10.855"/><use xlink:href="#16" y="13.026"/><use xlink:href="#17" y="15.197"/><use xlink:href="#18" y="17.368"/><use xlink:href="#19" y="19.539"/></svg><svg x="2550"><use xlink:href="#a"/><use xlink:href="#b" x="-.004"/></svg><svg x="2700"><use xlink:href="#a"/><use xlink:href="#4"/><use xlink:href="#5" y="2.171"/></svg><svg x="2850"><use xlink:href="#a"/><use xlink:href="#4"/><use xlink:href="#5" y="2.171"/><use xlink:href="#6" y="4.342"/><use xlink:href="#7" y="6.513"/></svg><svg x="3000"><use xlink:href="#a"/><use xlink:href="#4"/><use xlink:href="#5" y="2.171"/><use xlink:href="#6" y="4.342"/><use xlink:href="#7" y="6.513"/><use xlink:href="#8" y="8.684"/><use xlink:href="#9" y="10.855"/><use xlink:href="#10" y="13.026"/><use xlink:href="#11" y="15.197"/></svg><svg x="3150"><use xlink:href="#a"/><use xlink:href="#12"/><use xlink:href="#5" y="2.171"/><use xlink:href="#6" y="4.342"/><use xlink:href="#7" y="6.513"/><use xlink:href="#8" y="8.684"/><use xlink:href="#9" y="10.855"/><use xlink:href="#10" y="13.026"/><use xlink:href="#11" y="15.197"/></svg><svg x="3300"><use xlink:href="#a"/><use xlink:href="#24"/><use xlink:href="#25" y="2.171"/><use xlink:href="#6" y="4.342"/><use xlink:href="#7" y="6.513"/><use xlink:href="#8" y="8.684"/><use xlink:href="#9" y="10.855"/><use xlink:href="#10" y="13.026"/><use xlink:href="#11" y="15.197"/></svg><svg x="3450"><use xlink:href="#a"/><use xlink:href="#24"/><use xlink:href="#25" y="2.171"/><use xlink:href="#6" y="4.342"/><use xlink:href="#7" y="6.513"/><use xlink:href="#8" y="8.684"/><use xlink:href="#9" y="10.855"/><use xlink:href="#10" y="13.026"/><use xlink:href="#11" y="15.197"/></svg><svg x="3600"><use xlink:href="#a"/><use xlink:href="#24"/><use xlink:href="#26" y="2.171"/><use xlink:href="#6" y="4.342"/><use xlink:href="#7" y="6.513"/><use xlink:href="#8" y="8.684"/><use xlink:href="#9" y="10.855"/><use xlink:href="#10" y="13.026"/><use xlink:href="#11" y="15.197"/></svg><svg x="3750"><use xlink:href="#a"/><use xlink:href="#24"/><use xlink:href="#5" y="2.171"/><use xlink:href="#6" y="4.342"/><use xlink:href="#7" y="6.513"/><use xlink:href="#8" y="8.684"/><use xlink:href="#9" y="10.855"/><use xlink:href="#10" y="13.026"/><use xlink:href="#11" y="15.197"/></svg><svg x="3900"><use xlink:href="#a"/><use xlink:href="#24"/><use xlink:href="#5" y="2.171"/><use xlink:href="#27" y="4.342"/><use xlink:href="#7" y="6.513"/><use xlink:href="#8" y="8.684"/><use xlink:href="#9" y="10.855"/><use xlink:href="#10" y="13.026"/><use xlink:href="#11" y="15.197"/></svg><svg x="4050"><use xlink:href="#a"/><use xlink:href="#24"/><use xlink:href="#5" y="2.171"/><use xlink:href="#27" y="4.342"/><use xlink:href="#7" y="6.513"/><use xlink:href="#8" y="8.684"/><use xlink:href="#9" y="10.855"/><use xlink:href="#10" y="13.026"/><use xlink:href="#11" y="15.197"/></svg><svg x="4200"><use xlink:href="#a"/><use xlink:href="#24"/><use xlink:href="#5" y="2.171"/><use xlink:href="#27" y="4.342"/><use xlink:href="#7" y="6.513"/><use xlink:href="#8" y="8.684"/><use xlink:href="#9" y="10.855"/><use xlink:href="#10" y="13.026"/><use xlink:href="#11" y="15.197"/></svg><svg x="4350"><use xlink:href="#a"/><use xlink:href="#24"/><use xlink:href="#5" y="2.171"/><use xlink:href="#28" y="4.342"/><use xlink:href="#7" y="6.513"/><use xlink:href="#8" y="8.684"/><use xlink:href="#9" y="10.855"/><use xlink:href="#10" y="13.026"/><use xlink:href="#11" y="15.197"/></svg><svg x="4500"><use xlink:href="#a"/><use xlink:href="#24"/><use xlink:href="#5" y="2.171"/><use xlink:href="#6" y="4.342"/><use xlink:href="#7" y="6.513"/><use xlink:href="#8" y="8.684"/><use xlink:href="#9" y="10.855"/><use xlink:href="#10" y="13.026"/><use xlink:href="#11" y="15.197"/></svg><svg x="4650"><use xlink:href="#a"/><use xlink:href="#24"/><use xlink:href="#5" y="2.171"/><use xlink:href="#6" y="4.342"/><use xlink:href="#29" y="6.513"/><use xlink:href="#8" y="8.684"/><use xlink:href="#9" y="10.855"/><use xlink:href="#10" y="13.026"/><use xlink:href="#11" y="15.197"/></svg><svg x="4800"><use xlink:href="#a"/><use xlink:href="#24"/><use xlink:href="#5" y="2.171"/><use xlink:href="#6" y="4.342"/><use xlink:href="#30" y="6.513"/><use xlink:href="#8" y="8.684"/><use xlink:href="#9" y="10.855"/><use xlink:href="#10" y="13.026"/><use xlink:href="#11" y="15.197"/></svg><svg x="4950"><use xlink:href="#a"/></svg><svg x="5100"><use xlink:href="#a"/><use xlink:href="#b" x="-.004" y="17.343"/><use xlink:href="#31"/><use xlink:href="#32" y="2.171"/><use xlink:href="#31" y="4.342"/><use xlink:href="#33" y="10.855"/></svg><svg x="5250"><use xlink:href="#a"/><use xlink:href="#31"/><use xlink:href="#32" y="2.171"/><use xlink:href="#31" y="4.342"/><use xlink:href="#33" y="10.855"/><use xlink:href="#20" y="17.368"/><use xlink:href="#21" y="19.539"/></svg><svg x="5400"><use xlink:href="#a"/><use xlink:href="#31"/><use xlink:href="#32" y="2.171"/><use xlink:href="#31" y="4.342"/><use xlink:href="#33" y="10.855"/><use xlink:href="#20" y="17.368"/><use xlink:href="#21" y="19.539"/><use xlink:href="#22" y="21.71"/></svg><svg x="5550"><use xlink:href="#a"/><use xlink:href="#31"/><use xlink:href="#32" y="2.171"/><use xlink:href="#31" y="4.342"/><use xlink:href="#33" y="10.855"/><use xlink:href="#23" y="17.368"/><use xlink:href="#21" y="19.539"/><use xlink:href="#22" y="21.71"/></svg><svg x="5700"><use xlink:href="#a"/><use xlink:href="#31"/><use xlink:href="#32" y="2.171"/><use xlink:href="#31" y="4.342"/><use xlink:href="#33" y="10.855"/></svg><svg x="5850"><use xlink:href="#a"/><use xlink:href="#b" x="-.004" y="17.343"/><use xlink:href="#31"/><use xlink:href="#32" y="2.171"/><use xlink:href="#31" y="4.342"/><use xlink:href="#33" y="10.855"/></svg><svg x="6000"><use xlink:href="#a"/><use xlink:href="#b" x="-.004"/></svg><svg x="6150"><use xlink:href="#a"/><use xlink:href="#4"/><use xlink:href="#5" y="2.171"/><use xlink:href="#6" y="4.342"/></svg><svg x="6300"><use xlink:href="#a"/><use xlink:href="#4"/><use xlink:href="#5" y="2.171"/><use xlink:href="#6" y="4.342"/><use xlink:href="#7" y="6.513"/><use xlink:href="#8" y="8.684"/></svg><svg x="6450"><use xlink:href="#a"/><use xlink:href="#4"/><use xlink:href="#5" y="2.171"/><use xlink:href="#6" y="4.342"/><use xlink:href="#7" y="6.513"/><use xlink:href="#8" y="8.684"/><use xlink:href="#9" y="10.855"/><use xlink:href="#10" y="13.026"/><use xlink:href="#11" y="15.197"/></svg><svg x="6600"><use xlink:href="#a"/><use xlink:href="#12"/><use xlink:href="#5" y="2.171"/><use xlink:href="#6" y="4.342"/><use xlink:href="#7" y="6.513"/><use xlink:href="#8" y="8.684"/><use xlink:href="#9" y="10.855"/><use xlink:href="#10" y="13.026"/><use xlink:href="#11" y="15.197"/></svg><svg x="6750"><use xlink:href="#a"/><use xlink:href="#24"/><use xlink:href="#5" y="2.171"/><use xlink:href="#6" y="4.342"/><use xlink:href="#7" y="6.513"/><use xlink:href="#8" y="8.684"/><use xlink:href="#9" y="10.855"/><use xlink:href="#10" y="13.026"/><use xlink:href="#11" y="15.197"/></svg><svg x="6900"><use xlink:href="#a"/><use xlink:href="#24"/><use xlink:href="#25" y="2.171"/><use xlink:href="#6" y="4.342"/><use xlink:href="#7" y="6.513"/><use xlink:href="#8" y="8.684"/><use xlink:href="#9" y="10.855"/><use xlink:href="#10" y="13.026"/><use xlink:href="#11" y="15.197"/></svg><svg x="7050"><use xlink:href="#a"/><use xlink:href="#24"/><use xlink:href="#25" y="2.171"/><use xlink:href="#6" y="4.342"/><use xlink:href="#7" y="6.513"/><use xlink:href="#8" y="8.684"/><use xlink:href="#9" y="10.855"/><use xlink:href="#10" y="13.026"/><use xlink:href="#11" y="15.197"/></svg><svg x="7200"><use xlink:href="#a"/><use xlink:href="#24"/><use xlink:href="#26" y="2.171"/><use xlink:href="#6" y="4.342"/><use xlink:href="#7" y="6.513"/><use xlink:href="#8" y="8.684"/><use xlink:href="#9" y="10.855"/><use xlink:href="#10" y="13.026"/><use xlink:href="#11" y="15.197"/></svg><svg x="7350"><use xlink:href="#a"/><use xlink:href="#24"/><use xlink:href="#5" y="2.171"/><use xlink:href="#6" y="4.342"/><use xlink:href="#7" y="6.513"/><use xlink:href="#8" y="8.684"/><use xlink:href="#9" y="10.855"/><use xlink:href="#10" y="13.026"/><use xlink:href="#11" y="15.197"/></svg><svg x="7500"><use xlink:href="#a"/><use xlink:href="#24"/><use xlink:href="#5" y="2.171"/><use xlink:href="#27" y="4.342"/><use xlink:href="#7" y="6.513"/><use xlink:href="#8" y="8.684"/><use xlink:href="#9" y="10.855"/><use xlink:href="#10" y="13.026"/><use xlink:href="#11" y="15.197"/></svg><svg x="7650"><use xlink:href="#a"/><use xlink:href="#24"/><use xlink:href="#5" y="2.171"/><use xlink:href="#28" y="4.342"/><use xlink:href="#7" y="6.513"/><use xlink:href="#8" y="8.684"/><use xlink:href="#9" y="10.855"/><use xlink:href="#10" y="13.026"/><use xlink:href="#11" y="15.197"/></svg><svg x="7800"><use xlink:href="#a"/><use xlink:href="#24"/><use xlink:href="#5" y="2.171"/><use xlink:href="#28" y="4.342"/><use xlink:href="#7" y="6.513"/><use xlink:href="#8" y="8.684"/><use xlink:href="#9" y="10.855"/><use xlink:href="#10" y="13.026"/><use xlink:href="#11" y="15.197"/></svg><svg x="7950"><use xlink:href="#a"/><use xlink:href="#24"/><use xlink:href="#5" y="2.171"/><use xlink:href="#6" y="4.342"/><use xlink:href="#7" y="6.513"/><use xlink:href="#8" y="8.684"/><use xlink:href="#9" y="10.855"/><use xlink:href="#10" y="13.026"/><use xlink:href="#11" y="15.197"/></svg><svg x="8100"><use xlink:href="#a"/><use xlink:href="#24"/><use xlink:href="#5" y="2.171"/><use xlink:href="#6" y="4.342"/><use xlink:href="#29" y="6.513"/><use xlink:href="#8" y="8.684"/><use xlink:href="#9" y="10.855"/><use xlink:href="#10" y="13.026"/><use xlink:href="#11" y="15.197"/></svg><svg x="8250"><use xlink:href="#a"/><use xlink:href="#24"/><use xlink:href="#5" y="2.171"/><use xlink:href="#6" y="4.342"/><use xlink:href="#30" y="6.513"/><use xlink:href="#8" y="8.684"/><use xlink:href="#9" y="10.855"/><use xlink:href="#10" y="13.026"/><use xlink:href="#11" y="15.197"/></svg><svg x="8400"><use xlink:href="#a"/><use xlink:href="#24"/><use xlink:href="#5" y="2.171"/><use xlink:href="#6" y="4.342"/><use xlink:href="#30" y="6.513"/><use xlink:href="#8" y="8.684"/><use xlink:href="#9" y="10.855"/><use xlink:href="#10" y="13.026"/><use xlink:href="#11" y="15.197"/></svg><svg x="8550"><use xlink:href="#a"/><use xlink:href="#24"/><use xlink:href="#5" y="2.171"/><use xlink:href="#6" y="4.342"/><use xlink:href="#30" y="6.513"/><use xlink:href="#8" y="8.684"/><use xlink:href="#9" y="10.855"/><use xlink:href="#10" y="13.026"/><use xlink:href="#11" y="15.197"/></svg><svg x="8700"><use xlink:href="#a"/><use xlink:href="#24"/><use xlink:href="#5" y="2.171"/><use xlink:href="#6" y="4.342"/><use xlink:href="#7" y="6.513"/><use xlink:href="#34" y="8.684"/><use xlink:href="#9" y="10.855"/><use xlink:href="#10" y="13.026"/><use xlink:href="#11" y="15.197"/></svg><svg x="8850"><use xlink:href="#a"/><use xlink:href="#24"/><use xlink:href="#5" y="2.171"/><use xlink:href="#6" y="4.342"/><use xlink:href="#7" y="6.513"/><use xlink:href="#34" y="8.684"/><use xlink:href="#9" y="10.855"/><use xlink:href="#10" y="13.026"/><use xlink:href="#11" y="15.197"/></svg><svg x="9000"><use xlink:href="#a"/><use xlink:href="#24"/><use xlink:href="#5" y="2.171"/><use xlink:href="#6" y="4.342"/><use xlink:href="#7" y="6.513"/><use xlink:href="#35" y="8.684"/><use xlink:href="#9" y="10.855"/><use xlink:href="#10" y="13.026"/><use xlink:href="#11" y="15.197"/></svg><svg x="9150"><use xlink:href="#a"/><use xlink:href="#24"/><use xlink:href="#5" y="2.171"/><use xlink:href="#6" y="4.342"/><use xlink:href="#7" y="6.513"/><use xlink:href="#35" y="8.684"/><use xlink:href="#9" y="10.855"/><use xlink:href="#10" y="13.026"/><use xlink:href="#11" y="15.197"/></svg><svg x="9300"><use xlink:href="#a"/><use xlink:href="#24"/><use xlink:href="#5" y="2.171"/><use xlink:href="#6" y="4.342"/><use xlink:href="#7" y="6.513"/><use xlink:href="#35" y="8.684"/><use xlink:href="#9" y="10.855"/><use xlink:href="#10" y="13.026"/><use xlink:href="#11" y="15.197"/></svg><svg x="9450"><use xlink:href="#a"/><use xlink:href="#24"/><use xlink:href="#5" y="2.171"/><use xlink:href="#6" y="4.342"/><use xlink:href="#7" y="6.513"/><use xlink:href="#8" y="8.684"/><path class="h" d="M2.004 10.855h63v2.171h-63z"/><text x="2.004" y="12.525" class="i">IET &amp; MET 3rd Semester - CSEN301 Data structures and Algorithms</text><use xlink:href="#10" y="13.026"/><use xlink:href="#11" y="15.197"/></svg><svg x="9600"><use xlink:href="#a"/><use xlink:href="#24"/><use xlink:href="#5" y="2.171"/><use xlink:href="#6" y="4.342"/><use xlink:href="#7" y="6.513"/><use xlink:href="#8" y="8.684"/><text y="12.525" class="j">&gt;</text><path class="h" d="M2.004 10.855h63v2.171h-63z"/><text x="2.004" y="12.525" class="i">IET &amp; MET 3rd Semester - CSEN301 Data structures and Algorithms</text><use xlink:href="#10" y="13.026"/><use xlink:href="#11" y="15.197"/></svg><svg x="9750"><use xlink:href="#a"/></svg><svg x="9900"><use xlink:href="#a"/><use xlink:href="#b" x="-.004" y="13.001"/><use xlink:href="#36"/><use xlink:href="#37" y="2.171"/><use xlink:href="#36" y="4.342"/><use xlink:href="#38" y="10.855"/></svg><svg x="10050"><use xlink:href="#a"/><use xlink:href="#b" x="76.996" y="19.514"/><use xlink:href="#36"/><use xlink:href="#37" y="2.171"/><use xlink:href="#36" y="4.342"/><use xlink:href="#38" y="10.855"/><use xlink:href="#39" y="13.026"/><use xlink:href="#40" y="15.197"/><use xlink:href="#41" y="17.368"/><use xlink:href="#42" y="19.539"/></svg><svg x="10200"><use xlink:href="#a"/><use xlink:href="#b" x="-.004" y="23.856"/><use xlink:href="#36"/><use xlink:href="#37" y="2.171"/><use xlink:href="#36" y="4.342"/><use xlink:href="#38" y="10.855"/><use xlink:href="#39" y="13.026"/><use xlink:href="#40" y="15.197"/><use xlink:href="#41" y="17.368"/><use xlink:href="#42" y="19.539"/></svg><svg x="10350"><use xlink:href="#a"/><use xlink:href="#b" x="-.004" y="26.027"/><use xlink:href="#36"/><use xlink:href="#37" y="2.171"/><use xlink:href="#36" y="4.342"/><use xlink:href="#38" y="10.855"/><use xlink:href="#39" y="13.026"/><use xlink:href="#40" y="15.197"/><use xlink:href="#41" y="17.368"/><use xlink:href="#42" y="19.539"/></svg><svg x="10500"><use xlink:href="#a"/><use xlink:href="#36"/><use xlink:href="#37" y="2.171"/><use xlink:href="#36" y="4.342"/><use xlink:href="#38" y="10.855"/><use xlink:href="#39" y="13.026"/><use xlink:href="#40" y="15.197"/><use xlink:href="#41" y="17.368"/><use xlink:href="#42" y="19.539"/><use xlink:href="#20" y="26.052"/><use xlink:href="#21" y="28.223"/></svg><svg x="10650"><use xlink:href="#a"/><use xlink:href="#36"/><use xlink:href="#37" y="2.171"/><use xlink:href="#36" y="4.342"/><use xlink:href="#38" y="10.855"/><use xlink:href="#39" y="13.026"/><use xlink:href="#40" y="15.197"/><use xlink:href="#41" y="17.368"/><use xlink:href="#42" y="19.539"/><use xlink:href="#20" y="26.052"/><use xlink:href="#21" y="28.223"/><use xlink:href="#22" y="30.394"/></svg><svg x="10800"><use xlink:href="#a"/><use xlink:href="#36"/><use xlink:href="#37" y="2.171"/><use xlink:href="#36" y="4.342"/><use xlink:href="#38" y="10.855"/><use xlink:href="#39" y="13.026"/><use xlink:href="#40" y="15.197"/><use xlink:href="#41" y="17.368"/><use xlink:href="#42" y="19.539"/><use xlink:href="#23" y="26.052"/><use xlink:href="#21" y="28.223"/><use xlink:href="#22" y="30.394"/></svg><svg x="10950"><use xlink:href="#a"/><use xlink:href="#36"/><use xlink:href="#37" y="2.171"/><use xlink:href="#36" y="4.342"/><use xlink:href="#38" y="10.855"/><use xlink:href="#39" y="13.026"/><use xlink:href="#40" y="15.197"/><use xlink:href="#41" y="17.368"/><use xlink:href="#42" y="19.539"/><use xlink:href="#43" y="26.052"/><use xlink:href="#44" y="28.223"/><use xlink:href="#22" y="30.394"/></svg><svg x="11100"><use xlink:href="#a"/><use xlink:href="#36"/><use xlink:href="#37" y="2.171"/><use xlink:href="#36" y="4.342"/><use xlink:href="#38" y="10.855"/><use xlink:href="#39" y="13.026"/><use xlink:href="#40" y="15.197"/><use xlink:href="#41" y="17.368"/><use xlink:href="#42" y="19.539"/><use xlink:href="#43" y="26.052"/><use xlink:href="#44" y="28.223"/><use xlink:href="#22" y="30.394"/></svg><svg x="11250"><use xlink:href="#a"/><use xlink:href="#36"/><use xlink:href="#37" y="2.171"/><use xlink:href="#36" y="4.342"/><use xlink:href="#38" y="10.855"/><use xlink:href="#39" y="13.026"/><use xlink:href="#40" y="15.197"/><use xlink:href="#41" y="17.368"/><use xlink:href="#42" y="19.539"/><use xlink:href="#43" y="26.052"/><use xlink:href="#45" y="28.223"/><use xlink:href="#22" y="30.394"/></svg><svg x="11400"><use xlink:href="#a"/><use xlink:href="#36"/><use xlink:href="#37" y="2.171"/><use xlink:href="#36" y="4.342"/><use xlink:href="#38" y="10.855"/><use xlink:href="#39" y="13.026"/><use xlink:href="#40" y="15.197"/><use xlink:href="#41" y="17.368"/><use xlink:href="#42" y="19.539"/><use xlink:href="#43" y="26.052"/><use xlink:href="#45" y="28.223"/><use xlink:href="#22" y="30.394"/></svg><svg x="11550"><use xlink:href="#a"/><use xlink:href="#36"/><use xlink:href="#37" y="2.171"/><use xlink:href="#36" y="4.342"/><use xlink:href="#38" y="10.855"/><use xlink:href="#39" y="13.026"/><use xlink:href="#40" y="15.197"/><use xlink:href="#41" y="17.368"/><use xlink:href="#42" y="19.539"/></svg><svg x="11700"><use xlink:href="#a"/><use xlink:href="#b" x="-.004" y="26.027"/><use xlink:href="#36"/><use xlink:href="#37" y="2.171"/><use xlink:href="#36" y="4.342"/><use xlink:href="#38" y="10.855"/><use xlink:href="#39" y="13.026"/><use xlink:href="#40" y="15.197"/><use xlink:href="#41" y="17.368"/><use xlink:href="#42" y="19.539"/></svg><svg x="11850"><use xlink:href="#a"/><use xlink:href="#b" x="-.004"/></svg><svg x="12000"><use xlink:href="#a"/><use xlink:href="#b" x="18.996"/><use xlink:href="#1"/></svg><svg x="12150"><use xlink:href="#a"/><use xlink:href="#b" x="19.996"/><text x="1.002" y="1.67" class="f">~/GUC-Grades</text><text x="14.028" y="1.67" class="f">$</text><text x="16.032" y="1.67" class="f">&gt;&gt;</text><text x="19.038" y="1.67" class="g">e</text></svg><svg x="12300"><use xlink:href="#a"/><use xlink:href="#b" x="20.996"/><text x="1.002" y="1.67" class="f">~/GUC-Grades</text><text x="14.028" y="1.67" class="f">$</text><text x="16.032" y="1.67" class="f">&gt;&gt;</text><text x="19.038" y="1.67" class="g">ex</text></svg><svg x="12450"><use xlink:href="#a"/><use xlink:href="#b" x="21.996"/><text x="1.002" y="1.67" class="f">~/GUC-Grades</text><text x="14.028" y="1.67" class="f">$</text><text x="16.032" y="1.67" class="f">&gt;&gt;</text><text x="19.038" y="1.67" class="g">exi</text></svg><svg x="12600"><use xlink:href="#a"/><use xlink:href="#b" x="22.996"/><use xlink:href="#2"/></svg><svg x="12750"><use xlink:href="#a"/><use xlink:href="#b" x="-.004" y="2.146"/><use xlink:href="#2"/></svg><svg x="12900"><use xlink:href="#a"/><use xlink:href="#b" x="-.004" y="4.317"/><use xlink:href="#2"/><text y="3.841" class="g">exit</text></svg></svg></g></g></svg></svg>